<?xml version="1.0" standalone="no"?><!DOCTYPE svg PUBLIC "-//W3C//DTD SVG 1.1//EN" "http://www.w3.org/Graphics/SVG/1.1/DTD/svg11.dtd"><svg height="2000" node-id="1" sillyvg="true" template-height="2000" template-width="2000" version="1.1" viewBox="0 0 2000 2000" width="2000" xmlns="http://www.w3.org/2000/svg" xmlns:xlink="http://www.w3.org/1999/xlink"><defs node-id="627"><linearGradient gradientUnits="userSpaceOnUse" id="SVGID_1_" node-id="7" spreadMethod="pad" x1="1575.2732" x2="1575.2732" y1="1333.5264" y2="-990.6652"><stop offset="0.2597" stop-color="#ffffff"></stop><stop offset="1" stop-color="#6397f7"></stop></linearGradient><linearGradient gradientUnits="userSpaceOnUse" id="SVGID_00000089572550585723947370000000663174231263409287_" node-id="12" spreadMethod="pad" x1="1367.0226" x2="1367.0226" y1="1485.3397" y2="-838.8519"><stop offset="0.2597" stop-color="#ffffff"></stop><stop offset="1" stop-color="#6397f7"></stop></linearGradient><linearGradient gradientUnits="userSpaceOnUse" id="SVGID_00000031902309982344324670000007128913291628515724_" node-id="17" spreadMethod="pad" x1="237.765" x2="237.765" y1="1692.5669" y2="222.7671"><stop offset="0.2597" stop-color="#ffffff"></stop><stop offset="1" stop-color="#6397f7"></stop></linearGradient><linearGradient gradientUnits="userSpaceOnUse" id="SVGID_00000096750068867002762550000014934251449060302724_" node-id="21" spreadMethod="pad" x1="663.3768" x2="663.3768" y1="1676.0184" y2="-10.8862"><stop offset="0.2597" stop-color="#ffffff"></stop><stop offset="1" stop-color="#6397f7"></stop></linearGradient><linearGradient gradientUnits="userSpaceOnUse" id="SVGID_00000147193226915529605660000007734420960119071884_" node-id="25" spreadMethod="pad" x1="439.152" x2="439.152" y1="1551.8156" y2="-109.0365"><stop offset="0.2597" stop-color="#ffffff"></stop><stop offset="1" stop-color="#6397f7"></stop></linearGradient><linearGradient gradientUnits="userSpaceOnUse" id="SVGID_00000137822163030382297010000010927149442229091749_" node-id="30" spreadMethod="pad" x1="175.2054" x2="186.4241" y1="652.9139" y2="235.5508"><stop offset="0" stop-color="#ffffff"></stop><stop offset="1" stop-color="#6397f7"></stop></linearGradient><linearGradient gradientUnits="userSpaceOnUse" id="SVGID_00000048472271412524506180000009756030502316695183_" node-id="35" spreadMethod="pad" x1="1201.2517" x2="1201.2517" y1="221.8104" y2="-53.2877"><stop offset="0" stop-color="#ffffff"></stop><stop offset="1" stop-color="#6397f7"></stop></linearGradient><linearGradient gradientUnits="userSpaceOnUse" id="SVGID_00000174598752133635173760000015774564343452068774_" node-id="41" spreadMethod="pad" x1="1562.2788" x2="1562.2788" y1="1495.0356" y2="1366.8394"><stop offset="0" stop-color="#ffffff"></stop><stop offset="1" stop-color="#6397f7"></stop></linearGradient><linearGradient gradientUnits="userSpaceOnUse" id="SVGID_00000023986108138063882970000000123990309337194654_" node-id="46" spreadMethod="pad" x1="1562.6564" x2="1560.566" y1="1334.3372" y2="1599.2554"><stop offset="0" stop-color="#ffffff"></stop><stop offset="1" stop-color="#6397f7"></stop></linearGradient><linearGradient gradientUnits="userSpaceOnUse" id="SVGID_00000072965880558499166710000001085078070787197095_" node-id="52" spreadMethod="pad" x1="503.7863" x2="503.7863" y1="1555.1084" y2="1428.71"><stop offset="0" stop-color="#ffffff"></stop><stop offset="1" stop-color="#6397f7"></stop></linearGradient><linearGradient gradientUnits="userSpaceOnUse" id="SVGID_00000132070180844864063510000003354168924277553320_" node-id="57" spreadMethod="pad" x1="504.1047" x2="502.3421" y1="1409.5726" y2="1632.9598"><stop offset="0" stop-color="#ffffff"></stop><stop offset="1" stop-color="#6397f7"></stop></linearGradient><linearGradient gradientUnits="userSpaceOnUse" id="SVGID_00000109708544599631861990000013444706655588687295_" node-id="63" spreadMethod="pad" x1="226.2006" x2="226.2006" y1="1868.7142" y2="1706.4114"><stop offset="0" stop-color="#ffffff"></stop><stop offset="1" stop-color="#6397f7"></stop></linearGradient><linearGradient gradientUnits="userSpaceOnUse" id="SVGID_00000074421207681792945080000014261185529123785648_" node-id="68" spreadMethod="pad" x1="226.6786" x2="224.0322" y1="1665.262" y2="2000.6614"><stop offset="0" stop-color="#ffffff"></stop><stop offset="1" stop-color="#6397f7"></stop></linearGradient><linearGradient gradientUnits="userSpaceOnUse" id="SVGID_00000085225956585986521120000008011123766139793063_" node-id="73" spreadMethod="pad" x1="1001.2857" x2="1001.2857" y1="1980.6039" y2="459.3243"><stop offset="0.2597" stop-color="#ffffff"></stop><stop offset="1" stop-color="#6397f7"></stop></linearGradient><linearGradient gradientUnits="userSpaceOnUse" id="SVGID_00000025423412565212498910000011514411714744160661_" node-id="590" spreadMethod="pad" x1="1081.0637" x2="1081.0637" y1="-13747.267" y2="-13419.517"><stop offset="0" stop-color="#5a91f7"></stop><stop offset="0.2039" stop-color="#a2c1fb" stop-opacity="0.8034"></stop><stop offset="0.9749" stop-color="#ffffff" stop-opacity="0.54"></stop></linearGradient><linearGradient gradientUnits="userSpaceOnUse" id="SVGID_00000045607479072337366250000005443180675103388576_" node-id="595" spreadMethod="pad" x1="979.9372" x2="979.9372" y1="1445.7487" y2="911.9048"><stop offset="0.1766" stop-color="#2b62ba"></stop><stop offset="0.7862" stop-color="#91d3f8"></stop><stop offset="1" stop-color="#d9f3ff"></stop></linearGradient><linearGradient gradientUnits="userSpaceOnUse" id="SVGID_00000165193787225527512830000004311269063142762151_" node-id="600" spreadMethod="pad" x1="991.2252" x2="991.2252" y1="885.4249" y2="1419.2688"><stop offset="0" stop-color="#5a91f7"></stop><stop offset="1" stop-color="#2b62ba"></stop></linearGradient><linearGradient gradientTransform="matrix(0.7071 0.7071 -0.7071 0.7071 4925.0513 143.5285)" gradientUnits="userSpaceOnUse" id="SVGID_00000174562962558605626950000012764302943748209295_" node-id="605" spreadMethod="pad" x1="-2269.7002" x2="-1873.1896" y1="3389.5046" y2="3389.5046"><stop offset="0" stop-color="#91d3f8"></stop><stop offset="1" stop-color="#d9f3ff"></stop></linearGradient><linearGradient gradientTransform="matrix(0.7071 0.7071 -0.7071 0.7071 4925.0513 143.5285)" gradientUnits="userSpaceOnUse" id="SVGID_00000145778434370646137920000002681824514552471216_" node-id="609" spreadMethod="pad" x1="-2140.727" x2="-2080.6716" y1="3352.1982" y2="3352.1982"><stop offset="0" stop-color="#91d3f8"></stop><stop offset="0.8519" stop-color="#5a91f7"></stop></linearGradient><linearGradient gradientUnits="userSpaceOnUse" id="SVGID_00000013911883249297193180000002570576427692783515_" node-id="613" spreadMethod="pad" x1="1015.1951" x2="1015.1951" y1="1521.1213" y2="1148"><stop offset="0.1766" stop-color="#2b62ba"></stop><stop offset="0.7862" stop-color="#91d3f8"></stop><stop offset="1" stop-color="#d9f3ff"></stop></linearGradient><linearGradient gradientUnits="userSpaceOnUse" id="SVGID_00000093877662611225820570000011451312461056099732_" node-id="618" spreadMethod="pad" x1="1025.0721" x2="1025.0721" y1="1063.4869" y2="1436.6082"><stop offset="0" stop-color="#99c0ff"></stop><stop offset="1" stop-color="#2b62ba"></stop></linearGradient><linearGradient gradientTransform="matrix(1 0.00311676 -0.00311676 1 20.0057 -6.7287)" gradientUnits="userSpaceOnUse" id="SVGID_00000036212404913548743320000005200477657667507612_" node-id="622" spreadMethod="pad" x1="1071.1902" x2="1071.1902" y1="1170.4464" y2="1439.0925"><stop offset="0" stop-color="#91d3f8"></stop><stop offset="0.9944" stop-color="#5a91f7"></stop></linearGradient></defs><g node-id="869"><path d="M 0.00 2.00 L 2000.00 2.00 L 2000.00 2002.00 L 0.00 2002.00 Z" fill="#ffffff" fill-rule="nonzero" group-id="1" node-id="770" stroke="none" target-height="2000" target-width="2000" target-x="0" target-y="2"></path><g node-id="871"><path d="M 1930.60 810.56 C 1930.60 957.93 1893.16 1099.26 1826.53 1203.46 C 1759.89 1307.67 1669.51 1366.21 1575.27 1366.21 C 1481.03 1366.21 1390.65 1307.67 1324.01 1203.46 C 1257.38 1099.26 1219.94 957.93 1219.94 810.56 C 1219.94 663.19 1257.38 521.86 1324.01 417.66 C 1390.65 313.45 1481.03 254.91 1575.27 254.91 C 1669.51 254.91 1759.89 313.45 1826.53 417.66 C 1893.16 521.86 1930.60 663.19 1930.60 810.56 Z" fill="url(#SVGID_1_)" fill-opacity="0.57" fill-rule="nonzero" group-id="1,3" node-id="774" stroke="none" target-height="1111.2999" target-width="710.66003" target-x="1219.94" target-y="254.91"></path></g><g node-id="872"><path d="M 1722.35 962.38 C 1722.35 1109.75 1684.91 1251.08 1618.28 1355.28 C 1551.64 1459.49 1461.26 1518.03 1367.02 1518.03 C 1272.78 1518.03 1182.40 1459.49 1115.76 1355.28 C 1049.13 1251.08 1011.69 1109.75 1011.69 962.38 C 1011.69 815.01 1049.13 673.68 1115.76 569.48 C 1182.40 465.27 1272.78 406.73 1367.02 406.73 C 1461.26 406.73 1551.64 465.27 1618.28 569.48 C 1684.91 673.68 1722.35 815.01 1722.35 962.38 Z" fill="url(#SVGID_00000089572550585723947370000000663174231263409287_)" fill-opacity="0.57" fill-rule="nonzero" group-id="1,4" node-id="779" stroke="none" target-height="1111.3" target-width="710.66" target-x="1011.69" target-y="406.73"></path></g><g node-id="873"><path d="M 306.22 1010.46 L 169.31 1010.46 C 154.66 1010.46 142.78 1022.34 142.78 1036.99 L 142.78 1686.71 C 142.78 1701.36 154.66 1713.24 169.31 1713.24 L 306.22 1713.24 C 320.87 1713.24 332.75 1701.36 332.75 1686.71 L 332.75 1036.99 C 332.75 1022.34 320.87 1010.46 306.22 1010.46 Z M 217.82 1259.60 L 189.50 1259.60 L 189.50 1201.47 L 217.82 1201.47 L 217.82 1259.60 Z M 217.82 1143.33 L 189.50 1143.33 L 189.50 1085.20 L 217.82 1085.20 L 217.82 1143.33 Z" fill="url(#SVGID_00000031902309982344324670000007128913291628515724_)" fill-rule="nonzero" group-id="1,5" node-id="784" stroke="none" target-height="702.77997" target-width="189.97" target-x="142.78" target-y="1010.46"></path><path d="M 663.90 893.16 L 568.40 996.97 L 568.40 1699.75 L 758.37 1699.75 L 758.37 1699.75 L 758.37 996.97 L 663.90 893.16 Z M 641.06 1111.75 L 609.92 1111.75 L 609.92 1047.83 L 641.06 1047.83 L 641.06 1111.75 Z" fill="url(#SVGID_00000096750068867002762550000014934251449060302724_)" fill-rule="nonzero" group-id="1,5" node-id="786" stroke="none" target-height="806.59" target-width="189.96997" target-x="568.4" target-y="893.16"></path><path d="M 555.36 781.05 L 322.95 781.05 C 308.30 781.05 296.42 792.93 296.42 807.58 L 296.42 1548.65 C 296.42 1563.30 308.30 1575.18 322.95 1575.18 L 555.36 1575.18 C 570.01 1575.18 581.89 1563.30 581.89 1548.65 L 581.89 807.57 C 581.89 792.92 570.01 781.05 555.36 781.05 Z M 342.09 860.98 L 381.54 860.98 L 381.54 941.95 L 342.09 941.95 L 342.09 860.98 Z M 419.95 1127.76 L 380.50 1127.76 L 380.50 1046.79 L 419.95 1046.79 L 419.95 1127.76 Z" fill="url(#SVGID_00000147193226915529605660000007734420960119071884_)" fill-rule="nonzero" group-id="1,5" node-id="788" stroke="none" target-height="794.13007" target-width="285.47" target-x="296.42" target-y="781.05"></path></g><g node-id="874"><path d="M 310.46 585.20 C 310.46 553.50 284.82 527.79 253.15 527.68 C 243.39 494.67 212.84 470.59 176.67 470.59 C 145.11 470.59 117.83 488.93 104.90 515.53 C 70.91 516.83 43.75 544.79 43.75 579.10 C 43.75 614.24 72.24 642.73 107.38 642.73 C 107.53 642.73 107.67 642.73 107.82 642.72 L 107.82 643.60 L 253.81 643.60 L 253.81 642.72 C 285.18 642.25 310.46 616.68 310.46 585.20 Z" fill="url(#SVGID_00000137822163030382297010000010927149442229091749_)" fill-rule="nonzero" group-id="1,6" node-id="793" stroke="none" target-height="173.00998" target-width="266.71" target-x="43.75" target-y="470.59"></path></g><g node-id="875"><path d="M 1298.10 197.41 C 1298.10 180.87 1284.69 167.46 1268.15 167.46 C 1266.10 167.46 1264.10 167.67 1262.16 168.06 C 1255.33 156.01 1242.40 147.87 1227.56 147.87 C 1227.17 147.87 1226.79 147.89 1226.41 147.90 C 1225.69 125.19 1207.06 107.01 1184.18 107.01 C 1161.29 107.01 1142.66 125.22 1141.95 147.94 C 1121.03 149.08 1104.41 166.41 1104.41 187.62 C 1104.41 208.44 1120.42 225.51 1140.80 227.21 L 1140.80 227.36 L 1268.44 227.36 L 1268.44 227.35 C 1284.84 227.20 1298.10 213.86 1298.10 197.41 Z" fill="url(#SVGID_00000048472271412524506180000009756030502316695183_)" fill-opacity="0.79" fill-rule="nonzero" group-id="1,7" node-id="798" stroke="none" target-height="120.35" target-width="193.68994" target-x="1104.41" target-y="107.01"></path></g><g node-id="876"><g node-id="882"><path d="M 1555.12 1435.54 L 1569.43 1435.54 L 1569.43 1496.84 L 1555.12 1496.84 Z" fill="url(#SVGID_00000174598752133635173760000015774564343452068774_)" fill-rule="nonzero" group-id="1,8,14" node-id="805" stroke="none" target-height="61.299927" target-width="14.310059" target-x="1555.12" target-y="1435.54"></path></g><path d="M 1592.51 1372.02 C 1588.06 1359.62 1576.20 1350.75 1562.27 1350.75 C 1546.80 1350.75 1533.89 1361.68 1530.84 1376.24 C 1516.76 1379.64 1506.30 1392.33 1506.30 1407.46 C 1506.30 1425.20 1520.68 1439.58 1538.42 1439.58 C 1539.05 1439.58 1539.68 1439.56 1540.31 1439.52 C 1545.87 1444.14 1553.02 1446.92 1560.81 1446.92 C 1570.64 1446.92 1579.44 1442.50 1585.34 1435.54 C 1585.48 1435.54 1585.63 1435.55 1585.77 1435.55 C 1603.51 1435.55 1617.89 1421.17 1617.89 1403.43 C 1617.89 1388.00 1607.01 1375.12 1592.51 1372.02 Z" fill="url(#SVGID_00000023986108138063882970000000123990309337194654_)" fill-rule="nonzero" group-id="1,8,15" node-id="810" stroke="none" target-height="96.170044" target-width="111.589966" target-x="1506.3" target-y="1350.75"></path></g><g node-id="877"><g node-id="884"><path d="M 497.75 1494.91 L 509.82 1494.91 L 509.82 1546.60 L 497.75 1546.60 Z" fill="url(#SVGID_00000072965880558499166710000001085078070787197095_)" fill-rule="nonzero" group-id="1,9,16" node-id="818" stroke="none" target-height="51.68994" target-width="12.070007" target-x="497.75" target-y="1494.91"></path></g><path d="M 529.28 1441.35 C 525.53 1430.90 515.53 1423.42 503.78 1423.42 C 490.74 1423.42 479.85 1432.64 477.28 1444.92 C 465.41 1447.79 456.58 1458.49 456.58 1471.24 C 456.58 1486.20 468.70 1498.32 483.66 1498.32 C 484.19 1498.32 484.72 1498.30 485.25 1498.27 C 489.94 1502.17 495.97 1504.51 502.54 1504.51 C 510.83 1504.51 518.25 1500.78 523.22 1494.91 C 523.34 1494.91 523.46 1494.91 523.59 1494.91 C 538.55 1494.91 550.67 1482.79 550.67 1467.83 C 550.68 1454.82 541.51 1443.96 529.28 1441.35 Z" fill="url(#SVGID_00000132070180844864063510000003354168924277553320_)" fill-rule="nonzero" group-id="1,9,17" node-id="823" stroke="none" target-height="81.089966" target-width="94.100006" target-x="456.58" target-y="1423.42"></path></g><g node-id="878"><g node-id="886"><path d="M 217.14 1793.39 L 235.26 1793.39 L 235.26 1870.99 L 217.14 1870.99 Z" fill="url(#SVGID_00000109708544599631861990000013444706655588687295_)" fill-rule="nonzero" group-id="1,10,18" node-id="831" stroke="none" target-height="77.599976" target-width="18.119995" target-x="217.14" target-y="1793.39"></path></g><path d="M 264.48 1712.97 C 258.85 1697.27 243.84 1686.05 226.20 1686.05 C 206.62 1686.05 190.27 1699.89 186.41 1718.32 C 168.58 1722.63 155.34 1738.69 155.34 1757.84 C 155.34 1780.30 173.54 1798.50 196.00 1798.50 C 196.80 1798.50 197.60 1798.47 198.39 1798.43 C 205.43 1804.28 214.48 1807.80 224.35 1807.80 C 236.80 1807.80 247.94 1802.20 255.40 1793.39 C 255.58 1793.39 255.76 1793.40 255.95 1793.40 C 278.41 1793.40 296.61 1775.20 296.61 1752.74 C 296.60 1733.20 282.84 1716.89 264.48 1712.97 Z" fill="url(#SVGID_00000074421207681792945080000014261185529123785648_)" fill-rule="nonzero" group-id="1,10,19" node-id="836" stroke="none" target-height="121.75" target-width="141.26999" target-x="155.34" target-y="1686.05"></path></g><path d="M 1939.56 2002.00 C 1970.73 1947.92 1987.57 1890.20 1987.57 1830.26 C 1987.57 1523.38 1545.99 1274.61 1001.28 1274.61 C 456.57 1274.61 15.00 1523.38 15.00 1830.26 C 15.00 1890.20 31.85 1947.92 63.01 2002.00 L 1939.56 2002.00 Z" fill="url(#SVGID_00000085225956585986521120000008011123766139793063_)" fill-opacity="0.68" fill-rule="nonzero" group-id="1,11" node-id="842" stroke="none" target-height="727.39" target-width="1972.57" target-x="15" target-y="1274.61"></path></g><g node-id="870"><g node-id="880"><path d="M 1406.50 1576.03 C 1404.43 1578.77 1398.84 1580.53 1390.61 1580.53 C 1383.87 1580.54 1380.51 1580.55 1373.77 1580.56 C 1381.08 1587.95 1388.39 1595.33 1395.70 1602.72 C 1403.41 1610.52 1398.60 1616.86 1385.05 1617.20 C 1382.54 1618.11 1379.25 1618.64 1375.21 1618.64 C 1365.23 1618.64 1355.24 1618.64 1345.26 1618.64 C 1362.19 1629.05 1380.17 1639.33 1395.91 1650.08 C 1401.39 1653.82 1418.12 1665.53 1411.07 1673.45 C 1403.31 1682.17 1384.67 1678.66 1373.08 1676.99 C 1348.69 1673.48 1323.46 1669.01 1298.70 1664.92 C 1291.58 1663.74 1287.11 1664.11 1284.19 1666.23 C 1273.50 1673.96 1262.62 1681.58 1251.82 1689.21 C 1247.44 1692.31 1241.87 1694.68 1231.65 1694.23 C 1212.56 1693.40 1191.07 1687.24 1177.23 1673.64 C 1168.27 1664.84 1159.39 1655.68 1150.55 1646.61 C 1150.17 1647.08 1149.97 1647.32 1149.59 1647.80 C 1147.53 1650.38 1142.82 1651.87 1136.46 1652.02 C 1133.89 1652.96 1130.55 1653.47 1126.59 1653.46 C 1078.31 1653.46 1030.03 1653.46 981.75 1653.46 C 967.75 1653.55 951.77 1648.28 941.30 1638.95 C 878.11 1575.11 814.92 1511.26 751.73 1447.42 C 746.77 1442.40 746.99 1437.98 751.37 1435.38 C 750.61 1432.74 752.17 1430.51 755.65 1429.02 C 757.06 1425.72 762.99 1423.54 772.21 1423.53 C 915.54 1423.53 1058.87 1423.53 1202.20 1423.53 C 1215.35 1423.84 1229.96 1426.84 1240.28 1435.52 C 1297.34 1478.68 1354.40 1521.85 1411.46 1565.01 C 1416.37 1569.96 1414.02 1574.20 1406.50 1576.03 Z" fill="url(#SVGID_00000025423412565212498910000011514411714744160661_)" fill-opacity="0.68" fill-rule="nonzero" group-id="2,12" node-id="849" stroke="none" target-height="271.15002" target-width="671.35" target-x="746.77" target-y="1423.53"></path></g><path d="M 1217.84 1049.70 L 987.14 1049.70 C 985.60 1049.71 984.12 1049.09 983.04 1048.00 L 923.61 988.57 C 918.18 983.11 910.79 980.05 903.09 980.07 L 742.03 980.07 C 726.01 980.09 713.03 993.07 713.02 1009.08 L 713.02 1392.06 C 713.04 1408.08 726.02 1421.06 742.03 1421.07 L 1217.85 1421.07 C 1233.87 1421.05 1246.85 1408.07 1246.86 1392.06 L 1246.86 1078.72 C 1246.84 1062.70 1233.86 1049.72 1217.84 1049.70 L 1217.84 1049.70 Z" fill="url(#SVGID_00000045607479072337366250000005443180675103388576_)" fill-rule="nonzero" group-id="2" node-id="852" stroke="none" target-height="441.01996" target-width="533.83997" target-x="713.02" target-y="980.05"></path><path d="M 1229.13 1052.52 L 998.43 1052.52 C 996.89 1052.53 995.41 1051.91 994.33 1050.82 L 934.90 991.39 C 929.47 985.93 922.08 982.87 914.38 982.89 L 753.32 982.89 C 737.30 982.91 724.32 995.89 724.31 1011.90 L 724.31 1394.88 C 724.33 1410.90 737.31 1423.88 753.32 1423.89 L 1229.14 1423.89 C 1245.16 1423.87 1258.14 1410.89 1258.15 1394.88 L 1258.15 1081.54 C 1258.13 1065.52 1245.15 1052.54 1229.13 1052.52 L 1229.13 1052.52 Z" fill="url(#SVGID_00000165193787225527512830000004311269063142762151_)" fill-rule="nonzero" group-id="2" node-id="854" stroke="none" target-height="441.02002" target-width="533.84" target-x="724.31" target-y="982.87"></path><path d="M 998.16 1278.39 C 992.60 1273.41 988.99 1266.41 986.60 1258.51 C 979.49 1235.07 971.86 1211.78 965.02 1188.26 C 962.56 1179.81 957.60 1175.76 949.40 1173.39 C 925.87 1166.58 902.47 1159.32 879.17 1151.77 C 865.28 1147.27 854.01 1139.30 849.88 1124.27 C 844.85 1105.95 850.80 1090.60 867.48 1078.68 C 887.69 1064.24 907.79 1049.63 928.39 1035.76 C 935.45 1031.01 937.78 1025.54 937.63 1017.43 C 937.16 991.53 936.93 965.62 937.21 939.72 C 937.46 916.25 952.51 900.37 975.06 898.55 C 985.94 897.67 994.72 902.38 1003.01 908.59 C 1023.45 923.90 1043.97 939.09 1064.29 954.55 C 1069.88 958.81 1075.25 959.53 1081.86 957.16 C 1104.93 948.92 1128.18 941.19 1151.28 933.02 C 1168.03 927.10 1184.17 927.48 1197.42 940.10 C 1211.06 953.09 1212.11 969.65 1206.28 986.83 C 1198.41 1010.03 1190.55 1033.24 1182.21 1056.27 C 1179.51 1063.74 1180.69 1069.56 1185.37 1075.72 C 1200.40 1095.49 1214.97 1115.61 1229.98 1135.39 C 1240.29 1148.98 1244.61 1163.56 1236.73 1179.45 C 1228.79 1195.46 1214.74 1202.41 1197.22 1202.24 C 1171.68 1201.99 1146.14 1201.58 1120.60 1200.87 C 1113.67 1200.68 1108.97 1202.58 1104.83 1208.56 C 1089.29 1230.99 1073.45 1253.22 1057.22 1275.15 C 1042.35 1295.24 1016.44 1296.69 998.16 1278.39 Z" fill="url(#SVGID_00000174562962558605626950000012764302943748209295_)" fill-rule="nonzero" group-id="2,13" node-id="858" stroke="none" target-height="399.01996" target-width="399.76" target-x="844.85" target-y="897.67"></path><path d="M 1086.52 1026.92 C 1070.55 1014.72 1054.50 1014.87 1038.24 1026.40 C 1033.60 1029.70 1028.31 1031.48 1024.54 1025.66 C 1020.85 1020.01 1024.56 1015.93 1029.07 1012.51 C 1050.20 996.49 1079.24 996.94 1097.58 1014.50 C 1100.31 1017.41 1102.81 1021.69 1099.26 1026.61 C 1095.42 1031.90 1090.81 1030.20 1086.52 1026.92 Z" fill="url(#SVGID_00000145778434370646137920000002681824514552471216_)" fill-rule="nonzero" group-id="2" node-id="861" stroke="none" target-height="35.410034" target-width="81.96008" target-x="1020.85" target-y="996.49"></path><path d="M 801.09 1124.56 C 785.07 1124.58 772.09 1135.30 772.08 1148.54 L 724.48 1408.82 C 724.50 1422.06 737.48 1432.78 753.49 1432.80 L 1229.31 1432.80 C 1245.33 1432.78 1258.31 1422.06 1258.32 1408.82 L 1305.92 1149.89 C 1305.90 1136.65 1292.92 1125.93 1276.91 1125.91 L 1276.91 1125.91" fill="url(#SVGID_00000013911883249297193180000002570576427692783515_)" fill-rule="nonzero" group-id="2" node-id="863" stroke="none" target-height="308.24" target-width="581.44006" target-x="724.48" target-y="1124.56"></path><path d="M 809.93 1131.61 C 793.83 1131.63 780.79 1142.35 780.77 1155.59 L 732.94 1415.87 C 732.96 1429.11 746.00 1439.83 762.10 1439.85 L 1240.22 1439.85 C 1256.32 1439.83 1269.36 1429.11 1269.38 1415.87 L 1317.21 1156.94 C 1317.19 1143.70 1304.15 1132.98 1288.05 1132.96 L 1288.05 1132.96" fill="url(#SVGID_00000093877662611225820570000011451312461056099732_)" fill-rule="nonzero" group-id="2" node-id="865" stroke="none" target-height="308.24" target-width="584.26996" target-x="732.94" target-y="1131.61"></path><path d="M 1150.35 1216.30 C 1015.61 1215.88 902.81 1310.68 875.64 1437.37 L 1239.88 1438.51 C 1255.98 1438.54 1269.05 1427.86 1269.11 1414.62 L 1298.34 1259.11 C 1255.44 1232.15 1204.74 1216.47 1150.35 1216.30 Z" fill="url(#SVGID_00000036212404913548743320000005200477657667507612_)" fill-rule="nonzero" group-id="2" node-id="867" stroke="none" target-height="222.66003" target-width="422.69995" target-x="875.64" target-y="1215.88"></path></g></svg>