<?xml version="1.0" standalone="no"?><!DOCTYPE svg PUBLIC "-//W3C//DTD SVG 1.1//EN" "http://www.w3.org/Graphics/SVG/1.1/DTD/svg11.dtd"><svg class="icon" width="200px" height="200.00px" viewBox="0 0 1024 1024" version="1.1" xmlns="http://www.w3.org/2000/svg"><path fill="#8a8a8a" d="M32.8 1023.2c-8.2 0-16.4-3.1-22.6-9.4-12.5-12.5-12.5-32.8 0-45.3L394 584.7c12.5-12.5 32.8-12.5 45.3 0s12.5 32.8 0 45.3L55.4 1013.8c-6.2 6.3-14.4 9.4-22.6 9.4zM734.4 961.4c-8.2 0-16.4-3.1-22.6-9.4-12.5-12.5-12.5-32.8 0-45.3L968.6 650c12.5-12.5 32.8-12.5 45.3 0s12.5 32.8 0 45.3L757 952c-6.2 6.3-14.4 9.4-22.6 9.4zM94.6 321.6c-8.2 0-16.4-3.1-22.6-9.4-12.5-12.5-12.5-32.8 0-45.3L328.8 10.2c12.5-12.5 32.8-12.5 45.3 0s12.5 32.8 0 45.3L117.2 312.2c-6.2 6.3-14.4 9.4-22.6 9.4zM607.8 831.7c-8.2 0-16.4-3.1-22.6-9.4L201 438.2c-6-6-9.4-14.1-9.4-22.6S195 399 201 393l256.1-256.1c12.5-12.5 32.8-12.5 45.3 0L886.6 521c6 6 9.4 14.1 9.4 22.6s-3.4 16.6-9.4 22.6L630.4 822.4c-6.2 6.2-14.4 9.3-22.6 9.3zM268.9 415.6l338.9 338.9 210.9-210.9-338.9-338.9-210.9 210.9z" /></svg>