<?xml version="1.0" standalone="no"?><!DOCTYPE svg PUBLIC "-//W3C//DTD SVG 1.1//EN" "http://www.w3.org/Graphics/SVG/1.1/DTD/svg11.dtd"><svg class="icon" width="200px" height="200.00px" viewBox="0 0 1024 1024" version="1.1" xmlns="http://www.w3.org/2000/svg"><path d="M496.555636 109.978451m-15.982558 0a15.982558 15.982558 0 1 0 31.965116 0 15.982558 15.982558 0 1 0-31.965116 0Z" fill="#A4A4A4" /><path d="M496.20288 299.055641L158.181274 498.905455v360.02815l338.021606-199.442787V299.055641z" fill="#D5D5D5" /><path d="M496.20288 299.055641l351.046441 199.849814v360.02815l-351.046441-199.442787V299.055641z" fill="#EBEBEB" /><path d="M847.249321 497.494431l-344.534023 165.11692v360.028151l344.534023-165.144055V497.494431z" fill="#D5D5D5" /><path d="M502.715298 1023.996255a1.438159 1.438159 0 0 1-0.732647-0.21708 1.356754 1.356754 0 0 1-0.624107-1.139673V662.638486a1.411024 1.411024 0 0 1 0.759782-1.248213l344.615429-165.11692a1.302484 1.302484 0 0 1 1.302483 0 1.329619 1.329619 0 0 1 0.651242 1.139673V857.468311a1.329619 1.329619 0 0 1-0.786917 1.221079l-344.615429 165.144055a1.600969 1.600969 0 0 1-0.569836 0.16281z m1.356753-360.516581v356.989022l341.901922-163.814437V499.638102z" fill="#A4A4A4" /><path d="M158.181274 497.494431l344.534024 165.11692v360.028151L158.181274 857.495447V497.494431z" fill="#FFFFFF" /><path d="M502.715298 1023.996255a1.600969 1.600969 0 0 1-0.596972-0.135675L157.665707 858.716525a1.356754 1.356754 0 0 1-0.759782-1.221078V497.494431a1.356754 1.356754 0 0 1 1.953726-1.221078l344.615429 165.11692a1.411024 1.411024 0 0 1 0.759782 1.248213v360.001016a1.356754 1.356754 0 0 1-0.624107 1.139673 1.519564 1.519564 0 0 1-0.895457 0.21708zM159.538027 856.654259l341.901922 163.814437V663.479674l-341.901922-163.841572z" fill="#A4A4A4" /><path d="M974.295734 620.389177l-347.383207 188.127462-124.197229-145.905288 344.534023-163.705896 127.046413 121.483722z" fill="#FFFFFF" /><path d="M626.912527 809.873393a1.411024 1.411024 0 0 1-1.031132-0.461296l-124.19723-145.905288a1.411024 1.411024 0 0 1-0.298486-1.166809 1.356754 1.356754 0 0 1 0.732647-0.949727l344.615429-163.705896a1.356754 1.356754 0 0 1 1.519564 0.244215l127.073548 121.456588a1.411024 1.411024 0 0 1 0.407026 1.166808 1.302484 1.302484 0 0 1-0.705512 1.003998l-347.328937 188.154597a1.356754 1.356754 0 0 1-0.786917 0.16281z m-122.107829-146.77361l122.352045 143.815887 344.778239-186.743573-125.038417-119.394322z" fill="#A4A4A4" /><path d="M496.20288 300.005369l-338.021606 198.900086L45.055154 371.859042 369.129332 178.548781l127.073548 121.456588z" fill="#FFFFFF" /><path d="M158.181274 500.262209a1.302484 1.302484 0 0 1-1.003998-0.461297L44.051156 372.7545A1.275348 1.275348 0 0 1 43.6984 371.750502a1.411024 1.411024 0 0 1 0.624107-0.949727l324.128449-193.418802a1.302484 1.302484 0 0 1 1.628104 0.189946l127.046412 121.456587a1.275348 1.275348 0 0 1 0.407027 1.139673 1.275348 1.275348 0 0 1-0.651242 1.003998l-338.021606 198.900086a1.221078 1.221078 0 0 1-0.678377 0.189946z m-111.009584-128.077546l111.253799 124.984147 335.498045-197.407657-125.011282-119.394322z" fill="#A4A4A4" /><path d="M49.858062 615.070703l338.157281 178.792997 114.699955-131.252349-344.534024-163.705896-108.323212 116.165248z" fill="#FFFFFF" /><path d="M388.015343 795.220454a1.438159 1.438159 0 0 1-0.651241-0.162811L49.125415 616.291781a1.411024 1.411024 0 0 1-0.352756-2.14367l108.323212-116.165249a1.383889 1.383889 0 0 1 1.573834-0.298485l344.615429 163.705896a1.411024 1.411024 0 0 1 0.759782 0.949727 1.356754 1.356754 0 0 1-0.298486 1.166809l-114.727089 131.252348a1.356754 1.356754 0 0 1-1.003998 0.461297zM52.056003 614.717947l335.633719 177.436243 112.827635-129.081543-341.901922-162.511953z" fill="#A4A4A4" /><path d="M496.20288 299.055641l351.046441 198.43879 131.659375-110.466883L642.460924 206.497907l-146.258044 92.557734z" fill="#FFFFFF" /><path d="M847.249321 498.851185a1.221078 1.221078 0 0 1-0.678377-0.189946l-351.046441-198.411655a1.356754 1.356754 0 0 1-0.678377-1.166808 1.302484 1.302484 0 0 1 0.624107-1.166808l146.258044-92.584869a1.411024 1.411024 0 0 1 1.383889 0l336.474907 180.529641a1.356754 1.356754 0 0 1 0.244216 2.225076l-131.68651 110.466883a1.329619 1.329619 0 0 1-0.895458 0.298486z m-348.414339-199.849814l348.251529 196.837821 129.434299-108.540293-334.005616-179.091483z" fill="#A4A4A4" /><path d="M445.216078 87.564881m-43.985954 0a43.985954 43.985954 0 1 0 87.971907 0 43.985954 43.985954 0 1 0-87.971907 0Z" fill="#FFFFFF" /><path d="M445.297483 132.961858a45.342707 45.342707 0 1 1 45.342707-45.342707A45.396977 45.396977 0 0 1 445.297483 132.961858z m0-87.971907a42.6292 42.6292 0 1 0 42.6292 42.6292A42.656335 42.656335 0 0 0 445.297483 44.935681z" fill="#A4A4A4" /><path d="M516.961211 75.272693m-28.708907 0a28.708907 28.708907 0 1 0 57.417814 0 28.708907 28.708907 0 1 0-57.417814 0Z" fill="#FFFFFF" /><path d="M516.961211 105.338354a30.065661 30.065661 0 1 1 30.065661-30.065661 30.092796 30.092796 0 0 1-30.065661 30.065661z m0-57.417815a27.352154 27.352154 0 1 0 27.352154 27.352154 27.379289 27.379289 0 0 0-27.352154-27.352154zM558.260792 66.58947l-0.759782-2.713508s1.87232-0.542701 5.264204-1.438159l0.678377 2.713508c-3.310479 0.895457-5.155664 1.438159-5.182799 1.438159zM491.996944 598.491173c-3.310479-1.600969-6.593823-3.310479-9.714357-5.047123l1.329619-2.387887c3.066263 1.736645 6.295337 3.391884 9.578681 4.992854z m-19.130227-10.691218c-3.093398-1.98086-6.132527-4.097396-9.008844-6.241067l1.628104-2.170806c2.713507 2.116536 5.806906 4.178801 8.846034 6.132526z m-17.583527-13.133376c-2.713507-2.415022-5.427015-4.938583-8.140522-7.516415l1.92659-1.899455c2.469292 2.523562 5.128529 4.992853 7.869171 7.38074zM439.870468 558.982507c-2.360751-2.713507-4.585827-5.779771-6.620958-8.764629l2.225076-1.546699c2.007995 2.930588 4.178801 5.834041 6.485283 8.601818z m-12.400728-18.153364a100.589716 100.589716 0 0 1-4.830043-9.877167l2.469291-1.058268c1.411024 3.229074 2.984858 6.485282 4.721503 9.632951z m-8.656089-20.21563a104.307221 104.307221 0 0 1-2.713507-10.664083l2.713507-0.542702a104.252951 104.252951 0 0 0 2.713508 10.392733z m-4.395881-21.545248c-0.352756-3.52756-0.542701-7.163659-0.542702-10.854029l2.713507-0.244216v0.271351c0 3.473289 0.189946 7.000849 0.515567 10.447003z m2.713507-21.708058l-2.713507-0.271351a107.45489 107.45489 0 0 1 1.628104-10.854029l2.713507 0.542701c-0.596972 3.446154-1.193943 7.027984-1.546699 10.555544z m4.178801-21.056817l-2.713507-0.786917c1.031133-3.473289 2.252211-6.973714 3.608965-10.392733l2.523561 1.003998c-1.139673 3.310479-2.306481 6.729498-3.337614 10.148517z m7.923441-19.998549l-2.415021-1.221078c1.600969-3.229074 3.391884-6.458147 5.427015-9.605816l2.306481 1.411024a117.956163 117.956163 0 0 0-5.237069 9.388735z m11.179651-18.397579l-2.225076-1.60097c1.87232-2.550697 3.85318-5.128529 5.88831-7.59782l0.895458-1.058268 2.062265 1.76378-0.868322 1.031132c-1.92659 2.387886-3.85318 4.911448-5.67123 7.43501z m13.920292-16.281044l-1.899455-1.926591c2.713507-2.577832 5.427015-5.047124 8.140522-7.353604l1.70951 2.116535c-2.632102 2.116536-5.318474 4.423017-7.869172 7.136525z m16.606665-13.567537l-1.519564-2.252211c2.984858-2.007995 6.159662-3.907451 9.388735-5.698365l1.302484 2.387886a76.710852 76.710852 0 0 0-9.09025 5.535555z m18.831741-10.311328l-1.112538-2.469291c3.229074-1.438159 6.675228-2.713507 10.175652-4.097396l0.922593 2.577832c-3.364749 1.085403-6.729498 2.442157-9.904302 3.85318z m20.269899-7.326469l-0.786917-2.713508c3.337614-0.976863 6.892309-1.92659 10.582679-2.713507l0.651241 2.713507c-3.58183 0.678377-7.082254 1.600969-10.365597 2.577832z m21.002547-5.101394l-0.515566-2.713508c3.500424-0.705512 7.082254-1.356754 10.718353-1.98086l0.461297 2.713507c-3.52756 0.461296-7.082254 1.139673-10.582679 1.845185z m21.382438-3.74464l-0.407027-2.713508c3.554695-0.569837 7.136524-1.085403 10.85403-1.628104l0.379891 2.713507c-3.608965 0.407026-7.190794 0.949728-10.745489 1.492429z m21.708058-3.174804l-0.488431-2.713507 10.854029-1.519564 0.379891 2.713507z m21.463843-3.093398l-0.407026-2.713508c3.52756-0.542701 7.109389-1.085403 10.718354-1.682374l0.434161 2.713507z m21.490978-3.554695l-0.461296-2.713507c3.500424-0.651242 7.055119-1.329619 10.636948-2.062266l0.542702 2.713508c-3.58183 0.596972-7.163659 1.275348-10.718354 1.92659z m21.409573-4.341611l-0.624107-2.713508c3.500424-0.814052 7.027984-1.655239 10.555543-2.550697l0.678377 2.713508c-3.58183 0.786917-7.109389 1.628104-10.609813 2.469291z m21.138222-5.427015l-0.732647-2.713507c3.446154-0.976863 6.892309-2.007995 10.392733-3.120534l0.814052 2.713507c-3.52756 1.003998-7.000849 2.062266-10.447003 3.039129z m20.839736-6.620958l-0.922593-2.523562c3.391884-1.248213 6.783768-2.577832 10.067112-3.96172l1.058268 2.496426c-3.337614 1.329619-6.756633 2.686372-10.202787 3.907451z m20.161359-8.574683l-1.221078-2.415022c3.256209-1.628104 6.458147-3.337614 9.551546-5.074258l1.329618 2.333616c-3.120533 1.70951-6.376742 3.446154-9.660086 5.074259z m18.994551-10.854029l-1.492429-2.252211c3.039128-2.007995 5.996851-4.097396 8.818899-6.241067l1.628104 2.170806c-2.849183 2.03513-5.861176 4.151666-8.954574 6.186796z m17.474987-13.269051l-1.790914-2.035131c2.713507-2.360751 5.427015-4.830043 7.869171-7.380739l1.92659 1.92659c-2.577832 2.442157-5.264204 4.965718-8.004847 7.353605z m15.466992-15.548397l-2.062265-1.76378c2.333616-2.713507 4.585827-5.427015 6.702363-8.439008l2.197941 1.628105c-2.062266 2.767777-4.477287 5.67123-6.838039 8.439008z m13.024835-17.664933l-2.306481-1.438159c1.899455-3.011993 3.717505-6.159662 5.427015-9.334465l2.415021 1.275349c-1.76378 3.093398-3.608965 6.295337-5.644095 9.3616z m10.229923-19.401577l-2.496427-1.085403c1.438159-3.283344 2.713507-6.648093 3.907451-10.039977l2.577832 0.895457c-1.193943 3.310479-2.550697 6.756633-3.988856 10.094248z m7.163659-20.731196l-2.713507-0.705512c0.895457-3.446154 1.70951-6.973714 2.360751-10.528408l2.713507 0.515566c-0.624107 3.446154-1.411024 7.055119-2.360751 10.582679z m4.043126-21.572383l-2.713507-0.325621c0.407026-3.52756 0.678377-7.136524 0.841187-10.854029h2.713507c-0.16281 3.771775-0.434161 7.43501-0.841187 11.043975z m-1.81805-21.843734c0-3.554695-0.298486-7.190794-0.624107-10.854029l2.713508-0.244216c0.352756 3.663235 0.569837 7.353605 0.651241 10.854029z m-1.98086-21.490978a182.890393 182.890393 0 0 0-1.980861-10.636948l2.713508-0.569837c0.786917 3.58183 1.492429 7.190794 2.03513 10.854029z m-4.612963-21.111087c-0.949728-3.419019-2.03513-6.892309-3.201938-10.311328l2.550697-0.895457c1.193943 3.473289 2.279346 7.000849 3.256208 10.474138z m-6.973713-20.459845c-1.329619-3.283344-2.713507-6.620958-4.287342-9.931437l2.469292-1.139673c1.546699 3.337614 2.984858 6.729498 4.341611 10.067112z m-9.307331-19.401577a93.968758 93.968758 0 0 0-6.105391-8.791764l2.143671-1.682374a91.146711 91.146711 0 0 1 6.268202 9.063114zM749.210302 86.533748a91.689412 91.689412 0 0 0-8.140522-7.082254l1.682375-2.143671a96.980751 96.980751 0 0 1 8.276197 7.299335zM732.250881 73.264697c-2.984858-1.845185-6.132527-3.554695-9.41587-5.155663l1.166808-2.442157a109.028724 109.028724 0 0 1 9.660086 5.264204z m-19.320172-9.3616c-3.283344-1.221078-6.729498-2.360751-10.257057-3.364749l0.759782-2.713507c3.58183 1.031133 7.082254 2.170806 10.447003 3.446154z m-138.958709-1.383888l-0.596972-2.713508c3.174804-0.732647 6.756633-1.492429 10.691219-2.252211l0.515566 2.713507c-3.907451 0.895457-7.462145 1.655239-10.609813 2.360752z m21.301032-4.124532l-0.434161-2.713507c3.419019-0.569837 7.027984-1.112538 10.854029-1.628104l0.352756 2.713507c-3.771775 0.624107-7.353605 1.166808-10.772624 1.736645zM692.226648 58.069057c-3.419019-0.732647-7.000849-1.383889-10.636948-1.899456l0.407026-2.713507c3.69037 0.542701 7.299335 1.193943 10.854029 1.92659z m-75.435503-2.469292l-0.271351-2.713507c3.52756-0.379891 7.163659-0.705512 10.85403-0.976863l0.189945 2.713507c-3.69037 0.298486-7.2722 0.596972-10.799759 0.976863z m54.080201-0.732647c-3.52756-0.325621-7.163659-0.569837-10.854029-0.732647v-2.713507c3.69037 0.16281 7.38074 0.407026 10.854029 0.759782z m-32.562088-0.814052v-2.713508c3.473289 0 6.946579-0.189946 10.284193-0.189945h0.651242v2.713507h-0.651242c-3.337614 0-6.756633 0.081405-10.202788 0.189946zM507.4368 605.112131l-5.074258-2.062265 1.058267-2.496427 4.992854 2.007995zM883.745995 78.474632h-33.37614a1.356754 1.356754 0 0 1-1.356754-1.356754 1.356754 1.356754 0 0 1 1.356754-1.356754h33.37614a1.356754 1.356754 0 0 1 1.356753 1.356754 1.356754 1.356754 0 0 1-1.356753 1.356754z" fill="#A4A4A4" /><path d="M867.057925 95.162702a1.356754 1.356754 0 0 1-1.356754-1.356754V60.402673a1.356754 1.356754 0 1 1 2.713507 0v33.403275a1.356754 1.356754 0 0 1-1.356753 1.356754z" fill="#A4A4A4" /><path d="M912.671983 109.978451m-8.276198 0a8.276197 8.276197 0 1 0 16.552395 0 8.276197 8.276197 0 1 0-16.552395 0Z" fill="#A4A4A4" /><path d="M313.746648 23.254758H272.691282a1.356754 1.356754 0 0 1-1.356753-1.356754 1.356754 1.356754 0 0 1 1.356753-1.356754h41.055366a1.356754 1.356754 0 0 1 1.356754 1.356754 1.356754 1.356754 0 0 1-1.356754 1.356754z" fill="#A4A4A4" /><path d="M293.341073 43.768873a1.356754 1.356754 0 0 1-1.356754-1.356754V1.356754A1.356754 1.356754 0 0 1 293.341073 0a1.356754 1.356754 0 0 1 1.356754 1.356754v41.055365a1.356754 1.356754 0 0 1-1.356754 1.356754zM237.117202 99.070152a11.532406 11.532406 0 1 1 11.532406-11.505271 11.505271 11.505271 0 0 1-11.532406 11.505271z m0-20.32417a8.818899 8.818899 0 1 0 8.818898 8.818899A8.818899 8.818899 0 0 0 237.117202 78.691712z" fill="#A4A4A4" /></svg>